# xmcd
#
# Track frame offsets:
#	150
#	14770
#	32899
#	51104
#	66081
#	81534
#	96252
#	112061
#	125974
#	144119
#	162403
#	180044
#
# Disc length: 2621 seconds
#
# Revision: 1
# Processed by: cddbd v1.5.2PL0 Copyright (c) Steve Scherf et al.
# Submitted via: audiograbber 1.83.01
#
DISCID=a90a3b0c
DTITLE=Toby Keith - Unleashed
DYEAR=2002
DGENRE=
TTITLE0=Courtesy Of The Red, White, And Blue (The Angry American) 
TTITLE1=Who's Your Daddy?
TTITLE2=Good To Go To Mexico
TTITLE3=It's All Good
TTITLE4=Beer For My Horses 
TTITLE5=Losing My Touch 
TTITLE6=Huckleberry 
TTITLE7=It Works For Me 
TTITLE8=Ain't It Just Like You
TTITLE9=Rock You Baby 
TTITLE10=Rodeo Moon 
TTITLE11=That's Not How It Is 
EXTD=
EXTT0=
EXTT1=
EXTT2=
EXTT3=
EXTT4=
EXTT5=
EXTT6=
EXTT7=
EXTT8=
EXTT9=
EXTT10=
EXTT11=
PLAYORDER=
